<?xml version="1.0" encoding="utf-8"?>
<!DOCTYPE svg PUBLIC "-//W3C//DTD SVG 1.1//EN" "http://www.w3.org/Graphics/SVG/1.1/DTD/svg11.dtd">
<svg style="width:308px;height:308px;" version="1.1" id="图形" xmlns="http://www.w3.org/2000/svg" xmlns:xlink="http://www.w3.org/1999/xlink" x="0px" y="0px" width="1024px" height="1024px" viewBox="0 0 1024 1024" enable-background="new 0 0 1024 1024" xml:space="preserve">
  <path class="svgpath" data-index="path_0" fill="#ecf0f1" d="M933.227846 335.094134c-39.99504-10.50561-134.033558-10.362258-271.589465-14.00748 6.49177-30.021879 8.0072-57.094814 8.0072-105.138012 0-114.803992-83.635302-215.928164-157.625102-215.928164-52.261824 0-95.32868 42.718717-96.00448 95.267244-0.696278 64.446693-20.642601 175.728336-127.99232 232.16783-7.863848 4.157191-30.390497 15.256685-33.687579 16.710677l1.699738 1.433514c-16.792592-14.49897-40.097434-25.598464-63.99616-25.598464l-96.00448 0c-52.917145 0-96.00448 43.066856-96.00448 96.00448l0 511.969282c0 52.917145 43.066856 96.00448 96.00448 96.00448l96.00448 0c38.070036 0 69.955483-22.99766 85.375997-55.251725 0.389097 0.122873 1.064896 0.32766 1.49495 0.389097 2.109313 0.573406 4.607724 1.187769 7.638582 1.986441 0.573406 0.16383 0.860108 0.225266 1.474472 0.389097 18.430894 4.566766 53.920605 13.065456 129.753495 30.49289 16.260144 3.706658 102.148111 22.014679 191.087415 22.014679l174.929664 0c53.306242 0 91.744895-20.519729 114.619683-61.702538 0.32766-0.634842 7.679539-15.010939 13.700298-34.424815 4.50533-14.621843 6.184589-35.32588 0.737236-56.316621 34.363378-23.612023 45.442393-59.327 52.630442-82.549927 12.061996-38.110993 8.437254-66.740316 0.061436-87.260044 19.33196-18.246585 35.796892-46.036278 42.739196-88.509249 4.321021-26.294742-0.32766-53.367678-12.451093-75.894326 18.103234-20.355899 26.376657-45.954363 27.318681-69.627822l0.389097-6.696558c0.225266-4.198148 0.409575-6.778473 0.409575-15.99392 0-40.404616-27.99448-91.970162-90.741436-109.889087zM224.027518 927.954563c0 17.693658-14.294182 32.00832-32.00832 32.00832l-96.00448 0c-17.693658 0-32.00832-14.294182-32.00832-32.00832l0-511.969282c0-17.693658 14.294182-32.00832 32.00832-32.00832l96.00448 0c17.693658 0 32.00832 14.294182 32.00832 32.00832l0 511.969282zM959.235886 465.093374c-0.634842 15.809611-7.269964 46.875907-63.258924 46.875907-48.00224 0-63.99616 0-63.99616 0-8.867308 0-15.99392 7.16757-15.99392 15.99392s7.126612 15.99392 15.99392 15.99392c0 0 14.00748 0 62.009719 0s54.309701 39.810731 51.196928 58.99934c-3.972882 23.878247-15.17477 68.99298-69.218247 68.99298-53.982041 0-75.99672 0-75.99672 0-8.867308 0-15.99392 7.126612-15.99392 15.99392 0 8.805872 7.126612 15.99392 15.99392 15.99392 0 0 38.008599 0 63.013179 0 54.00252 0 49.251445 41.182809 41.510469 65.757335-10.198428 32.295022-16.444453 62.234986-84.515889 62.234986-22.99766 0-52.179909 0-52.179909 0-8.867308 0-15.99392 7.126612-15.99392 15.99392 0 8.805872 7.126612 15.99392 15.99392 15.99392 0 0 22.178509 0 50.17299 0 34.99822 0 36.636522 33.114173 32.991301 44.99186-3.99336 12.983541-8.744435 22.629042-8.928744 23.079575-9.66598 17.447913-25.250325 27.933044-58.241626 27.933044l-174.929664 0c-87.874408 0-175.032058-19.925844-177.264244-20.437814-132.927704-30.615763-139.931444-32.991301-148.286783-35.366838 0 0-27.072936-4.566766-27.072936-28.199268l-0.225266-441.952363c0-15.010939 9.563586-28.567886 25.414155-33.33944 1.986441-0.757715 4.66916-1.597344 6.594164-2.396016 146.156991-60.535248 190.677839-193.278643 191.988481-302.246185 0.184309-15.318121 12.00056-32.00832 31.987841-32.00832 33.83093 0 93.628942 67.907606 93.628942 151.932004 0 75.873848-3.071816 88.980261-29.632782 168.048797 319.980801 0 317.748615 4.607724 345.968362 12.00056 34.99822 10.014119 38.008599 39.012059 38.008599 48.985221 0 10.976621-0.32766 9.379277-0.737236 20.130632zM144.016959 831.950083c-26.49953 0-48.00224 21.50271-48.00224 48.00224s21.50271 48.00224 48.00224 48.00224 48.00224-21.50271 48.00224-48.00224-21.50271-48.00224-48.00224-48.00224zM144.016959 895.946243c-8.805872 0-15.99392-7.208527-15.99392-15.99392s7.208527-15.99392 15.99392-15.99392 15.99392 7.208527 15.99392 15.99392-7.208527 15.99392-15.99392 15.99392z" />

</svg>
